<svg
  xmlns="http://www.w3.org/2000/svg"
  width="64"
  height="64"
  viewBox="0 0 64 64"
  fill="none"
>
  <path
    fill="#ef4444"
    d="M32 6C20.402 6 11 15.402 11 27c0 14.373 17.955 30.181 20.057 32.001a1.5 1.5 0 0 0 1.886 0C35.045 57.181 53 41.373 53 27 53 15.402 43.598 6 32 6Z"
  />
  <circle cx="32" cy="27" r="12" fill="#fff5f5" />
  <path
    fill="#ef4444"
    d="M35.112 20.69a6.438 6.438 0 0 0-6.224 0A5.95 5.95 0 0 0 26 25.878a1.5 1.5 0 1 0 3 0 2.96 2.96 0 0 1 1.448-2.595 3.438 3.438 0 0 1 3.104 0A2.96 2.96 0 0 1 35 25.878a1.5 1.5 0 1 0 3 0 5.95 5.95 0 0 0-2.888-5.188ZM25.814 24.146a1.5 1.5 0 0 0-2.069.467 7.922 7.922 0 0 0-1.131 4.085 1.5 1.5 0 1 0 3 0 4.934 4.934 0 0 1 .667-2.483 1.5 1.5 0 0 0-.467-2.069ZM40.255 24.613a1.5 1.5 0 1 0-2.536 1.603 4.934 4.934 0 0 1 .667 2.482 1.5 1.5 0 0 0 3 0 7.922 7.922 0 0 0-1.131-4.085ZM32 27.5A2.5 2.5 0 1 0 32 32.5 2.5 2.5 0 0 0 32 27.5Z"
  />
</svg>
